<svg viewBox="0 0 128 128" xmlns="http://www.w3.org/2000/svg"><path d="M86.8 91.5c-3.7-1.1-14.7-4-23 2.1 0 0-4.4 3.3-1.1 5.8 3.2 2.5 10.9 2.5 10.9 2.5s15.3-.2 16.7-5.9c.1-.4.1-1.3-3.5-4.5zM79.5 79.9c-2.8-.7-14.5-3.4-23 3.6 0 0-4 3.2-.2 5.5 3.8 2.3 12 1.5 12 1.5s12.5-.9 14.3-5.8c.2-.5.1-2.1-3.1-4.8zM120.4 104c-1.4-.4-5.3-1.1-8.1-.1-2.8.9-3.9 1.8-3.9 1.8s-2.1 1.4-.8 2.5c1.4 1 5.3 1.3 7.6 1.1s5.2-.6 5.2-.6 2.4-.6 1.9-2.3c-.6-1.5-1.9-2.4-1.9-2.4z" fill="#ea2d2e"/><path d="M85.4 113c-2.4-.4-34.9-5-49.9 6.8 0 0-3.3 3.2-.8 4.7 2.4 1.5 8 1.1 8 1.1s35.3 2.1 46.4-6.4c0 0 1.9-2 1.9-4.3s-5.6-1.9-5.6-1.9z" fill="#ea2d2e"/><path d="M60.1 61.3c2.5-3 5.4-8 1.2-13.6-2.5-3.3-8.1-5-10.7-9.5-1.6-2.8-.7-5.3.6-6.4 1.3-1.1 3-1.4 4.1-.2s1.4 3 .1 4c-1.3 1-2.1 2.3-.5 5 1.7 2.8 5.6 4.3 8.3 7.8s4 10-3.1 12.9z" fill="#5382a1"/><path d="M72.9 61.1c2.1-2.6 4.5-6.9 1-11.7-2.1-2.9-6.9-4.3-9.1-8.2-1.3-2.4-.6-4.5.5-5.5 1.1-1 2.5-1.2 3.4-.2.9.9 1.2 2.5.1 3.4-1.1.9-1.8 2 .4 4.2 1.5 2.4 4.7 3.7 7 6.7s3.4 8.6-3.3 11.3z" fill="#5382a1"/><path d="M41 85.5c-4.1-1.2-17.7-4.4-27.1 2.7 0 0-4.8 3.9-1.5 6.4 3.3 2.5 13.5 1.3 13.5 1.3s15.3-1.1 18.6-6.4c.1-.4.2-1.3-3.5-4z" fill="#ea2d2e"/></svg>