<svg viewBox="0 0 128 128" xmlns="http://www.w3.org/2000/svg"><path d="M64 0C28.7 0 31.4 15.2 31.4 15.2l.1 15.7h33.2v4.7H17.2S0 33.3 0 64.3s17.2 28.7 17.2 28.7h10.2v-14.3s-.2-17.1 16.7-17.1h32.7s16.5-.2 16.5-16V15.2S95.9 0 64 0z" fill="#3776ab"/><path d="M64 128c35.3 0 32.6-15.2 32.6-15.2l-.1-15.7H63.3v-4.7h47.5S128 94.7 128 63.7s-17.2-28.7-17.2-28.7h-10.2v14.3s.2 17.1-16.7 17.1H51.2s-16.5.2-16.5 16v30.4s-3.2 15.2 29.3 15.2z" fill="#ffd343"/><path d="M47.7 14.1c-2.3 0-4.2 1.9-4.2 4.2s1.9 4.2 4.2 4.2 4.2-1.9 4.2-4.2-1.9-4.2-4.2-4.2zM81.5 113.1c-2.3 0-4.2 1.9-4.2 4.2s1.9 4.2 4.2 4.2 4.2-1.9 4.2-4.2-1.9-4.2-4.2-4.2z" fill="#fff"/></svg>